<svg xmlns="http://www.w3.org/2000/svg" width="980" height="560" viewBox="0 0 980 560">
<style>
text{font-family:Arial,Helvetica,sans-serif;fill:#111827} .muted{fill:#4b5563} .grid{stroke:#e5e7eb;stroke-width:1} .axis{stroke:#6b7280;stroke-width:1.2} .ref{stroke:#b45309;stroke-width:1.5;stroke-dasharray:5 5} .line{fill:none;stroke-width:2.6;stroke-linejoin:round;stroke-linecap:round} .dot{stroke:#ffffff;stroke-width:1.3}
</style>
<rect width="100%" height="100%" fill="#ffffff"/>
<text x="84" y="34" font-size="22" font-weight="700">Block Withholding Attacker EV By Fee Level</text>
<text x="84" y="58" class="muted" font-size="13">Target miner: attacker_15. Y=BTC earned / theoretical hashrate EV.</text>
<line x1="84" y1="390.85" x2="720" y2="390.85" class="grid"/>
<text x="74" y="394.85" text-anchor="end" class="muted" font-size="11">0.700</text>
<line x1="84" y1="297.09" x2="720" y2="297.09" class="grid"/>
<text x="74" y="301.09" text-anchor="end" class="muted" font-size="11">0.800</text>
<line x1="84" y1="203.34" x2="720" y2="203.34" class="grid"/>
<text x="74" y="207.34" text-anchor="end" class="muted" font-size="11">0.900</text>
<line x1="84" y1="109.59" x2="720" y2="109.59" class="grid"/>
<text x="74" y="113.59" text-anchor="end" class="muted" font-size="11">1.000</text>
<line x1="84.00" y1="82" x2="84.00" y2="482" class="grid"/>
<text x="84.00" y="506" text-anchor="middle" class="muted" font-size="11">0.0e+00</text>
<line x1="243.00" y1="82" x2="243.00" y2="482" class="grid"/>
<text x="243.00" y="506" text-anchor="middle" class="muted" font-size="11">0.250</text>
<line x1="402.00" y1="82" x2="402.00" y2="482" class="grid"/>
<text x="402.00" y="506" text-anchor="middle" class="muted" font-size="11">0.500</text>
<line x1="561.00" y1="82" x2="561.00" y2="482" class="grid"/>
<text x="561.00" y="506" text-anchor="middle" class="muted" font-size="11">0.750</text>
<line x1="720.00" y1="82" x2="720.00" y2="482" class="grid"/>
<text x="720.00" y="506" text-anchor="middle" class="muted" font-size="11">1.000</text>
<line x1="84" y1="482" x2="720" y2="482" class="axis"/>
<line x1="84" y1="82" x2="84" y2="482" class="axis"/>
<line x1="84" y1="109.59" x2="720" y2="109.59" class="ref"/>
<text x="728" y="113.59" fill="#b45309" font-size="11">ref 1.000</text>
<text x="402.0" y="540" text-anchor="middle" class="muted" font-size="13">Bitcoin transaction fees per block (BTC)</text>
<text x="22" y="282.0" text-anchor="middle" transform="rotate(-90 22 282.0)" class="muted" font-size="13">Attacker EV ratio</text>
<polyline points="84.00,264.75 115.80,277.07 243.00,322.70 720.00,454.41" class="line" stroke="#15803d"/>
<circle cx="84.00" cy="264.75" r="4" fill="#15803d" class="dot"/>
<circle cx="115.80" cy="277.07" r="4" fill="#15803d" class="dot"/>
<circle cx="243.00" cy="322.70" r="4" fill="#15803d" class="dot"/>
<circle cx="720.00" cy="454.41" r="4" fill="#15803d" class="dot"/>
<line x1="748" y1="82" x2="766" y2="82" stroke="#15803d" stroke-width="3"/>
<text x="774" y="86" class="muted" font-size="11">attacker withholds all blocks</text>
<polyline points="84.00,155.09 115.80,157.73 243.00,167.52 720.00,195.76" class="line" stroke="#2563eb"/>
<circle cx="84.00" cy="155.09" r="4" fill="#2563eb" class="dot"/>
<circle cx="115.80" cy="157.73" r="4" fill="#2563eb" class="dot"/>
<circle cx="243.00" cy="167.52" r="4" fill="#2563eb" class="dot"/>
<circle cx="720.00" cy="195.76" r="4" fill="#2563eb" class="dot"/>
<line x1="748" y1="106" x2="766" y2="106" stroke="#2563eb" stroke-width="3"/>
<text x="774" y="110" class="muted" font-size="11">attacker withholds when underrepresented</text>
<polyline points="84.00,126.98 115.80,127.05 243.00,127.29 720.00,127.99" class="line" stroke="#ca8a04"/>
<circle cx="84.00" cy="126.98" r="4" fill="#ca8a04" class="dot"/>
<circle cx="115.80" cy="127.05" r="4" fill="#ca8a04" class="dot"/>
<circle cx="243.00" cy="127.29" r="4" fill="#ca8a04" class="dot"/>
<circle cx="720.00" cy="127.99" r="4" fill="#ca8a04" class="dot"/>
<line x1="748" y1="130" x2="766" y2="130" stroke="#ca8a04" stroke-width="3"/>
<text x="774" y="134" class="muted" font-size="11">honest all miners</text>
</svg>