<svg xmlns="http://www.w3.org/2000/svg" width="920" height="520" viewBox="0 0 920 520">
<rect width="100%" height="100%" fill="#ffffff"/>
<text x="86" y="30" fill="#111827" font-family="monospace" font-size="20">Consensus Selection Accuracy (minority_floor_flood, empty reserve)</text>
<text x="86" y="54" fill="#374151" font-family="monospace" font-size="12">Tie-adjusted accuracy by true majority share. Split window: 900 expected proofs. Chart shows selected rules.</text>
<rect x="86" y="76" width="806" height="368" fill="#ffffff" stroke="#d1d5db"/>
<line x1="86" x2="892" y1="444.00" y2="444.00" stroke="#e5e7eb"/>
<text x="76" y="448.00" fill="#374151" font-family="monospace" font-size="11" text-anchor="end">0%</text>
<line x1="86" x2="892" y1="370.40" y2="370.40" stroke="#e5e7eb"/>
<text x="76" y="374.40" fill="#374151" font-family="monospace" font-size="11" text-anchor="end">20%</text>
<line x1="86" x2="892" y1="296.80" y2="296.80" stroke="#e5e7eb"/>
<text x="76" y="300.80" fill="#374151" font-family="monospace" font-size="11" text-anchor="end">40%</text>
<line x1="86" x2="892" y1="223.20" y2="223.20" stroke="#e5e7eb"/>
<text x="76" y="227.20" fill="#374151" font-family="monospace" font-size="11" text-anchor="end">60%</text>
<line x1="86" x2="892" y1="149.60" y2="149.60" stroke="#e5e7eb"/>
<text x="76" y="153.60" fill="#374151" font-family="monospace" font-size="11" text-anchor="end">80%</text>
<line x1="86" x2="892" y1="76.00" y2="76.00" stroke="#e5e7eb"/>
<text x="76" y="80.00" fill="#374151" font-family="monospace" font-size="11" text-anchor="end">100%</text>
<line x1="86.00" x2="86.00" y1="76" y2="444" stroke="#f3f4f6"/>
<text x="86.00" y="466" fill="#374151" font-family="monospace" font-size="11" text-anchor="middle">51%</text>
<line x1="168.67" x2="168.67" y1="76" y2="444" stroke="#f3f4f6"/>
<text x="168.67" y="466" fill="#374151" font-family="monospace" font-size="11" text-anchor="middle">55%</text>
<line x1="272.00" x2="272.00" y1="76" y2="444" stroke="#f3f4f6"/>
<text x="272.00" y="466" fill="#374151" font-family="monospace" font-size="11" text-anchor="middle">60%</text>
<line x1="416.67" x2="416.67" y1="76" y2="444" stroke="#f3f4f6"/>
<text x="416.67" y="466" fill="#374151" font-family="monospace" font-size="11" text-anchor="middle">67%</text>
<line x1="582.00" x2="582.00" y1="76" y2="444" stroke="#f3f4f6"/>
<text x="582.00" y="466" fill="#374151" font-family="monospace" font-size="11" text-anchor="middle">75%</text>
<line x1="892.00" x2="892.00" y1="76" y2="444" stroke="#f3f4f6"/>
<text x="892.00" y="466" fill="#374151" font-family="monospace" font-size="11" text-anchor="middle">90%</text>
<polyline fill="none" stroke="#2563eb" stroke-width="2.4" points="86.00,289.48 168.67,240.31 272.00,185.08 416.67,131.94 582.00,103.93 892.00,82.11"/>
<circle cx="86.00" cy="289.48" r="3" fill="#2563eb"/>
<circle cx="168.67" cy="240.31" r="3" fill="#2563eb"/>
<circle cx="272.00" cy="185.08" r="3" fill="#2563eb"/>
<circle cx="416.67" cy="131.94" r="3" fill="#2563eb"/>
<circle cx="582.00" cy="103.93" r="3" fill="#2563eb"/>
<circle cx="892.00" cy="82.11" r="3" fill="#2563eb"/>
<polyline fill="none" stroke="#15803d" stroke-width="2.4" points="86.00,316.86 168.67,237.00 272.00,154.13 416.67,94.62 582.00,78.83 892.00,76.11"/>
<circle cx="86.00" cy="316.86" r="3" fill="#15803d"/>
<circle cx="168.67" cy="237.00" r="3" fill="#15803d"/>
<circle cx="272.00" cy="154.13" r="3" fill="#15803d"/>
<circle cx="416.67" cy="94.62" r="3" fill="#15803d"/>
<circle cx="582.00" cy="78.83" r="3" fill="#15803d"/>
<circle cx="892.00" cy="76.11" r="3" fill="#15803d"/>
<polyline fill="none" stroke="#ca8a04" stroke-width="2.4" points="86.00,408.52 168.67,292.05 272.00,119.31 416.67,76.26 582.00,76.00 892.00,76.00"/>
<circle cx="86.00" cy="408.52" r="3" fill="#ca8a04"/>
<circle cx="168.67" cy="292.05" r="3" fill="#ca8a04"/>
<circle cx="272.00" cy="119.31" r="3" fill="#ca8a04"/>
<circle cx="416.67" cy="76.26" r="3" fill="#ca8a04"/>
<circle cx="582.00" cy="76.00" r="3" fill="#ca8a04"/>
<circle cx="892.00" cy="76.00" r="3" fill="#ca8a04"/>
<polyline fill="none" stroke="#ea580c" stroke-width="2.4" points="86.00,441.42 168.67,383.65 272.00,150.19 416.67,76.00 582.00,76.00 892.00,76.00"/>
<circle cx="86.00" cy="441.42" r="3" fill="#ea580c"/>
<circle cx="168.67" cy="383.65" r="3" fill="#ea580c"/>
<circle cx="272.00" cy="150.19" r="3" fill="#ea580c"/>
<circle cx="416.67" cy="76.00" r="3" fill="#ea580c"/>
<circle cx="582.00" cy="76.00" r="3" fill="#ea580c"/>
<circle cx="892.00" cy="76.00" r="3" fill="#ea580c"/>
<polyline fill="none" stroke="#be185d" stroke-width="2.4" points="86.00,373.31 168.67,257.46 272.00,123.88 416.67,77.51 582.00,76.00 892.00,76.00"/>
<circle cx="86.00" cy="373.31" r="3" fill="#be185d"/>
<circle cx="168.67" cy="257.46" r="3" fill="#be185d"/>
<circle cx="272.00" cy="123.88" r="3" fill="#be185d"/>
<circle cx="416.67" cy="77.51" r="3" fill="#be185d"/>
<circle cx="582.00" cy="76.00" r="3" fill="#be185d"/>
<circle cx="892.00" cy="76.00" r="3" fill="#be185d"/>
<polyline fill="none" stroke="#0f766e" stroke-width="2.4" points="86.00,443.26 168.67,441.72 272.00,429.06 416.67,245.43 582.00,80.12 892.00,76.15"/>
<circle cx="86.00" cy="443.26" r="3" fill="#0f766e"/>
<circle cx="168.67" cy="441.72" r="3" fill="#0f766e"/>
<circle cx="272.00" cy="429.06" r="3" fill="#0f766e"/>
<circle cx="416.67" cy="245.43" r="3" fill="#0f766e"/>
<circle cx="582.00" cy="80.12" r="3" fill="#0f766e"/>
<circle cx="892.00" cy="76.15" r="3" fill="#0f766e"/>
<polyline fill="none" stroke="#dc2626" stroke-width="2.4" points="86.00,444.00 168.67,444.00 272.00,443.12 416.67,232.29 582.00,76.04 892.00,76.00"/>
<circle cx="86.00" cy="444.00" r="3" fill="#dc2626"/>
<circle cx="168.67" cy="444.00" r="3" fill="#dc2626"/>
<circle cx="272.00" cy="443.12" r="3" fill="#dc2626"/>
<circle cx="416.67" cy="232.29" r="3" fill="#dc2626"/>
<circle cx="582.00" cy="76.04" r="3" fill="#dc2626"/>
<circle cx="892.00" cy="76.00" r="3" fill="#dc2626"/>
<polyline fill="none" stroke="#374151" stroke-width="2.4" points="86.00,236.74 168.67,97.86 272.00,76.48 416.67,76.00 582.00,76.00 892.00,76.00"/>
<circle cx="86.00" cy="236.74" r="3" fill="#374151"/>
<circle cx="168.67" cy="97.86" r="3" fill="#374151"/>
<circle cx="272.00" cy="76.48" r="3" fill="#374151"/>
<circle cx="416.67" cy="76.00" r="3" fill="#374151"/>
<circle cx="582.00" cy="76.00" r="3" fill="#374151"/>
<circle cx="892.00" cy="76.00" r="3" fill="#374151"/>
<polyline fill="none" stroke="#8ff0a4" stroke-width="2.4" points="86.00,444.00 168.67,444.00 272.00,444.00 416.67,444.00 582.00,444.00 892.00,76.00"/>
<circle cx="86.00" cy="444.00" r="3" fill="#8ff0a4"/>
<circle cx="168.67" cy="444.00" r="3" fill="#8ff0a4"/>
<circle cx="272.00" cy="444.00" r="3" fill="#8ff0a4"/>
<circle cx="416.67" cy="444.00" r="3" fill="#8ff0a4"/>
<circle cx="582.00" cy="444.00" r="3" fill="#8ff0a4"/>
<circle cx="892.00" cy="76.00" r="3" fill="#8ff0a4"/>
<polyline fill="none" stroke="#99c1f1" stroke-width="2.4" points="86.00,444.00 168.67,444.00 272.00,444.00 416.67,444.00 582.00,444.00 892.00,76.00"/>
<circle cx="86.00" cy="444.00" r="3" fill="#99c1f1"/>
<circle cx="168.67" cy="444.00" r="3" fill="#99c1f1"/>
<circle cx="272.00" cy="444.00" r="3" fill="#99c1f1"/>
<circle cx="416.67" cy="444.00" r="3" fill="#99c1f1"/>
<circle cx="582.00" cy="444.00" r="3" fill="#99c1f1"/>
<circle cx="892.00" cy="76.00" r="3" fill="#99c1f1"/>
<rect x="98" y="85" width="10" height="10" fill="#2563eb"/>
<text x="114" y="94" fill="#111827" font-family="monospace" font-size="11">sum_workset_difficulty</text>
<rect x="98" y="103" width="10" height="10" fill="#15803d"/>
<text x="114" y="112" fill="#111827" font-family="monospace" font-size="11">sum_minus_top_1</text>
<rect x="98" y="121" width="10" height="10" fill="#ca8a04"/>
<text x="114" y="130" fill="#111827" font-family="monospace" font-size="11">sum_minus_top_10</text>
<rect x="98" y="139" width="10" height="10" fill="#ea580c"/>
<text x="114" y="148" fill="#111827" font-family="monospace" font-size="11">sum_minus_top_30</text>
<rect x="98" y="157" width="10" height="10" fill="#be185d"/>
<text x="114" y="166" fill="#111827" font-family="monospace" font-size="11">sum_capped_100x_floor</text>
<rect x="98" y="175" width="10" height="10" fill="#0f766e"/>
<text x="114" y="184" fill="#111827" font-family="monospace" font-size="11">sqrt_sum</text>
<rect x="98" y="193" width="10" height="10" fill="#dc2626"/>
<text x="114" y="202" fill="#111827" font-family="monospace" font-size="11">log_sum</text>
<rect x="98" y="211" width="10" height="10" fill="#374151"/>
<text x="114" y="220" fill="#111827" font-family="monospace" font-size="11">median_times_count</text>
<rect x="98" y="229" width="10" height="10" fill="#8ff0a4"/>
<text x="114" y="238" fill="#111827" font-family="monospace" font-size="11">p10_times_count</text>
<rect x="98" y="247" width="10" height="10" fill="#99c1f1"/>
<text x="114" y="256" fill="#111827" font-family="monospace" font-size="11">bottom_10_mean_times_count</text>
<text x="489.0" y="498" fill="#111827" font-family="monospace" font-size="13" text-anchor="middle">True hashrate share of side A</text>
<text transform="translate(22 260.0) rotate(-90)" fill="#111827" font-family="monospace" font-size="13" text-anchor="middle">Tie-adjusted accuracy</text>
</svg>