<svg xmlns="http://www.w3.org/2000/svg" width="980" height="560" viewBox="0 0 980 560">
<style>
text{font-family:Arial,Helvetica,sans-serif;fill:#111827} .muted{fill:#4b5563} .grid{stroke:#e5e7eb;stroke-width:1} .axis{stroke:#6b7280;stroke-width:1.2} .ref{stroke:#b45309;stroke-width:1.5;stroke-dasharray:5 5} .line{fill:none;stroke-width:2.6;stroke-linejoin:round;stroke-linecap:round} .dot{stroke:#ffffff;stroke-width:1.3}
</style>
<rect width="100%" height="100%" fill="#ffffff"/>
<text x="84" y="34" font-size="22" font-weight="700">Snapshot Split Scaling At Degree 8</text>
<text x="84" y="58" class="muted" font-size="13">X=total GridPool nodes; degree=8 active peers per node. Assumed one-hop share latency: JSON 650ms, compact WS 190ms, UDP-fast 35ms; block notification mean 850ms.</text>
<line x1="84" y1="482.00" x2="720" y2="482.00" class="grid"/>
<text x="74" y="486.00" text-anchor="end" class="muted" font-size="11">0.0e+00</text>
<line x1="84" y1="412.56" x2="720" y2="412.56" class="grid"/>
<text x="74" y="416.56" text-anchor="end" class="muted" font-size="11">0.00250</text>
<line x1="84" y1="343.11" x2="720" y2="343.11" class="grid"/>
<text x="74" y="347.11" text-anchor="end" class="muted" font-size="11">0.00500</text>
<line x1="84" y1="273.67" x2="720" y2="273.67" class="grid"/>
<text x="74" y="277.67" text-anchor="end" class="muted" font-size="11">0.00750</text>
<line x1="84" y1="204.22" x2="720" y2="204.22" class="grid"/>
<text x="74" y="208.22" text-anchor="end" class="muted" font-size="11">0.010</text>
<line x1="84" y1="134.78" x2="720" y2="134.78" class="grid"/>
<text x="74" y="138.78" text-anchor="end" class="muted" font-size="11">0.013</text>
<line x1="84" y1="65.33" x2="720" y2="65.33" class="grid"/>
<text x="74" y="69.33" text-anchor="end" class="muted" font-size="11">0.015</text>
<line x1="163.50" y1="82" x2="163.50" y2="482" class="grid"/>
<text x="163.50" y="506" text-anchor="middle" class="muted" font-size="11">20.00</text>
<line x1="362.25" y1="82" x2="362.25" y2="482" class="grid"/>
<text x="362.25" y="506" text-anchor="middle" class="muted" font-size="11">30.00</text>
<line x1="561.00" y1="82" x2="561.00" y2="482" class="grid"/>
<text x="561.00" y="506" text-anchor="middle" class="muted" font-size="11">40.00</text>
<line x1="759.75" y1="82" x2="759.75" y2="482" class="grid"/>
<text x="759.75" y="506" text-anchor="middle" class="muted" font-size="11">50.00</text>
<line x1="84" y1="482" x2="720" y2="482" class="axis"/>
<line x1="84" y1="82" x2="84" y2="482" class="axis"/>
<text x="402.0" y="540" text-anchor="middle" class="muted" font-size="13">Total GridPool nodes</text>
<text x="22" y="282.0" text-anchor="middle" transform="rotate(-90 22 282.0)" class="muted" font-size="13">Split rate</text>
<polyline points="84.00,343.11 243.00,331.54 720.00,111.63" class="line" stroke="#2563eb"/>
<circle cx="84.00" cy="343.11" r="4" fill="#2563eb" class="dot"/>
<circle cx="243.00" cy="331.54" r="4" fill="#2563eb" class="dot"/>
<circle cx="720.00" cy="111.63" r="4" fill="#2563eb" class="dot"/>
<line x1="748" y1="82" x2="766" y2="82" stroke="#2563eb" stroke-width="3"/>
<text x="774" y="86" class="muted" font-size="11">json http</text>
<polyline points="84.00,482.00 243.00,482.00 720.00,458.85" class="line" stroke="#ca8a04" stroke-dasharray="2 4"/>
<circle cx="84.00" cy="482.00" r="4" fill="#ca8a04" class="dot"/>
<circle cx="243.00" cy="482.00" r="4" fill="#ca8a04" class="dot"/>
<circle cx="720.00" cy="458.85" r="4" fill="#ca8a04" class="dot"/>
<line x1="748" y1="106" x2="766" y2="106" stroke="#ca8a04" stroke-width="3" stroke-dasharray="2 4"/>
<text x="774" y="110" class="muted" font-size="11">udp fast</text>
<polyline points="84.00,458.85 243.00,424.13 720.00,331.54" class="line" stroke="#15803d" stroke-dasharray="7 4"/>
<circle cx="84.00" cy="458.85" r="4" fill="#15803d" class="dot"/>
<circle cx="243.00" cy="424.13" r="4" fill="#15803d" class="dot"/>
<circle cx="720.00" cy="331.54" r="4" fill="#15803d" class="dot"/>
<line x1="748" y1="130" x2="766" y2="130" stroke="#15803d" stroke-width="3" stroke-dasharray="7 4"/>
<text x="774" y="134" class="muted" font-size="11">compact websocket</text>
</svg>