<svg xmlns="http://www.w3.org/2000/svg" width="980" height="560" viewBox="0 0 980 560">
<style>
text{font-family:Arial,Helvetica,sans-serif;fill:#111827} .muted{fill:#4b5563} .grid{stroke:#e5e7eb;stroke-width:1} .axis{stroke:#6b7280;stroke-width:1.2} .ref{stroke:#b45309;stroke-width:1.5;stroke-dasharray:5 5} .line{fill:none;stroke-width:2.6;stroke-linejoin:round;stroke-linecap:round} .dot{stroke:#ffffff;stroke-width:1.3}
</style>
<rect width="100%" height="100%" fill="#ffffff"/>
<text x="84" y="34" font-size="22" font-weight="700">Probability Of Zero GridPool Payout In 30 Days</text>
<text x="84" y="58" class="muted" font-size="13">Filtered to fee=0.05 BTC, support slot off, team multiplier=300 when available.</text>
<line x1="84" y1="482.00" x2="720" y2="482.00" class="grid"/>
<text x="74" y="486.00" text-anchor="end" class="muted" font-size="11">0.0e+00</text>
<line x1="84" y1="402.00" x2="720" y2="402.00" class="grid"/>
<text x="74" y="406.00" text-anchor="end" class="muted" font-size="11">0.200</text>
<line x1="84" y1="322.00" x2="720" y2="322.00" class="grid"/>
<text x="74" y="326.00" text-anchor="end" class="muted" font-size="11">0.400</text>
<line x1="84" y1="242.00" x2="720" y2="242.00" class="grid"/>
<text x="74" y="246.00" text-anchor="end" class="muted" font-size="11">0.600</text>
<line x1="84" y1="162.00" x2="720" y2="162.00" class="grid"/>
<text x="74" y="166.00" text-anchor="end" class="muted" font-size="11">0.800</text>
<line x1="84" y1="82.00" x2="720" y2="82.00" class="grid"/>
<text x="74" y="86.00" text-anchor="end" class="muted" font-size="11">1.000</text>
<line x1="171.72" y1="82" x2="171.72" y2="482" class="grid"/>
<text x="171.72" y="506" text-anchor="middle" class="muted" font-size="11">50.00</text>
<line x1="281.38" y1="82" x2="281.38" y2="482" class="grid"/>
<text x="281.38" y="506" text-anchor="middle" class="muted" font-size="11">100.0</text>
<line x1="391.03" y1="82" x2="391.03" y2="482" class="grid"/>
<text x="391.03" y="506" text-anchor="middle" class="muted" font-size="11">150.0</text>
<line x1="500.69" y1="82" x2="500.69" y2="482" class="grid"/>
<text x="500.69" y="506" text-anchor="middle" class="muted" font-size="11">200.0</text>
<line x1="610.34" y1="82" x2="610.34" y2="482" class="grid"/>
<text x="610.34" y="506" text-anchor="middle" class="muted" font-size="11">250.0</text>
<line x1="720.00" y1="82" x2="720.00" y2="482" class="grid"/>
<text x="720.00" y="506" text-anchor="middle" class="muted" font-size="11">300.0</text>
<line x1="84" y1="482" x2="720" y2="482" class="axis"/>
<line x1="84" y1="82" x2="84" y2="482" class="axis"/>
<text x="402.0" y="540" text-anchor="middle" class="muted" font-size="13">Total payout slots</text>
<text x="22" y="282.0" text-anchor="middle" transform="rotate(-90 22 282.0)" class="muted" font-size="13">P(zero payout)</text>
<polyline points="84.00,82.03 127.86,82.08 281.38,82.25 720.00,82.55" class="line" stroke="#15803d"/>
<circle cx="84.00" cy="82.03" r="4" fill="#15803d" class="dot"/>
<circle cx="127.86" cy="82.08" r="4" fill="#15803d" class="dot"/>
<circle cx="281.38" cy="82.25" r="4" fill="#15803d" class="dot"/>
<circle cx="720.00" cy="82.55" r="4" fill="#15803d" class="dot"/>
<line x1="748" y1="82" x2="766" y2="82" stroke="#15803d" stroke-width="3"/>
<text x="774" y="86" class="muted" font-size="11">bitaxe 1th</text>
<polyline points="84.00,82.28 127.86,82.82 281.38,84.45 720.00,87.43" class="line" stroke="#2563eb"/>
<circle cx="84.00" cy="82.28" r="4" fill="#2563eb" class="dot"/>
<circle cx="127.86" cy="82.82" r="4" fill="#2563eb" class="dot"/>
<circle cx="281.38" cy="84.45" r="4" fill="#2563eb" class="dot"/>
<circle cx="720.00" cy="87.43" r="4" fill="#2563eb" class="dot"/>
<line x1="748" y1="106" x2="766" y2="106" stroke="#2563eb" stroke-width="3"/>
<text x="774" y="110" class="muted" font-size="11">home 10th</text>
<polyline points="84.00,481.67 127.86,482.00 281.38,482.00 720.00,482.00" class="line" stroke="#ca8a04"/>
<circle cx="84.00" cy="481.67" r="4" fill="#ca8a04" class="dot"/>
<circle cx="127.86" cy="482.00" r="4" fill="#ca8a04" class="dot"/>
<circle cx="281.38" cy="482.00" r="4" fill="#ca8a04" class="dot"/>
<circle cx="720.00" cy="482.00" r="4" fill="#ca8a04" class="dot"/>
<line x1="748" y1="130" x2="766" y2="130" stroke="#ca8a04" stroke-width="3"/>
<text x="774" y="134" class="muted" font-size="11">hundred ph</text>
<polyline points="84.00,482.00 127.86,482.00 281.38,482.00 720.00,482.00" class="line" stroke="#ea580c"/>
<circle cx="84.00" cy="482.00" r="4" fill="#ea580c" class="dot"/>
<circle cx="127.86" cy="482.00" r="4" fill="#ea580c" class="dot"/>
<circle cx="281.38" cy="482.00" r="4" fill="#ea580c" class="dot"/>
<circle cx="720.00" cy="482.00" r="4" fill="#ea580c" class="dot"/>
<line x1="748" y1="154" x2="766" y2="154" stroke="#ea580c" stroke-width="3"/>
<text x="774" y="158" class="muted" font-size="11">one eh</text>
<polyline points="84.00,109.39 127.86,156.43 281.38,265.34 720.00,380.02" class="line" stroke="#be185d"/>
<circle cx="84.00" cy="109.39" r="4" fill="#be185d" class="dot"/>
<circle cx="127.86" cy="156.43" r="4" fill="#be185d" class="dot"/>
<circle cx="281.38" cy="265.34" r="4" fill="#be185d" class="dot"/>
<circle cx="720.00" cy="380.02" r="4" fill="#be185d" class="dot"/>
<line x1="748" y1="178" x2="766" y2="178" stroke="#be185d" stroke-width="3"/>
<text x="774" y="182" class="muted" font-size="11">one ph</text>
<polyline points="84.00,84.83 127.86,90.15 281.38,105.79 720.00,133.10" class="line" stroke="#0f766e"/>
<circle cx="84.00" cy="84.83" r="4" fill="#0f766e" class="dot"/>
<circle cx="127.86" cy="90.15" r="4" fill="#0f766e" class="dot"/>
<circle cx="281.38" cy="105.79" r="4" fill="#0f766e" class="dot"/>
<circle cx="720.00" cy="133.10" r="4" fill="#0f766e" class="dot"/>
<line x1="748" y1="202" x2="766" y2="202" stroke="#0f766e" stroke-width="3"/>
<text x="774" y="206" class="muted" font-size="11">small 100th</text>
<polyline points="84.00,285.20 127.86,430.96 281.38,481.13 720.00,482.00" class="line" stroke="#dc2626"/>
<circle cx="84.00" cy="285.20" r="4" fill="#dc2626" class="dot"/>
<circle cx="127.86" cy="430.96" r="4" fill="#dc2626" class="dot"/>
<circle cx="281.38" cy="481.13" r="4" fill="#dc2626" class="dot"/>
<circle cx="720.00" cy="482.00" r="4" fill="#dc2626" class="dot"/>
<line x1="748" y1="226" x2="766" y2="226" stroke="#dc2626" stroke-width="3"/>
<text x="774" y="230" class="muted" font-size="11">ten ph</text>
</svg>
