<svg xmlns="http://www.w3.org/2000/svg" width="980" height="560" viewBox="0 0 980 560">
<style>
text{font-family:Arial,Helvetica,sans-serif;fill:#111827} .muted{fill:#4b5563} .grid{stroke:#e5e7eb;stroke-width:1} .axis{stroke:#6b7280;stroke-width:1.2} .ref{stroke:#b45309;stroke-width:1.5;stroke-dasharray:5 5} .line{fill:none;stroke-width:2.6;stroke-linejoin:round;stroke-linecap:round} .dot{stroke:#ffffff;stroke-width:1.3}
</style>
<rect width="100%" height="100%" fill="#ffffff"/>
<text x="84" y="34" font-size="22" font-weight="700">Variance Reduction Versus Solo By Slot Count</text>
<text x="84" y="58" class="muted" font-size="13">Mean across miner sizes after applying the same filter as the CV chart.</text>
<line x1="84" y1="479.12" x2="720" y2="479.12" class="grid"/>
<text x="74" y="483.12" text-anchor="end" class="muted" font-size="11">0.0e+00</text>
<line x1="84" y1="415.36" x2="720" y2="415.36" class="grid"/>
<text x="74" y="419.36" text-anchor="end" class="muted" font-size="11">25.00</text>
<line x1="84" y1="351.60" x2="720" y2="351.60" class="grid"/>
<text x="74" y="355.60" text-anchor="end" class="muted" font-size="11">50.00</text>
<line x1="84" y1="287.83" x2="720" y2="287.83" class="grid"/>
<text x="74" y="291.83" text-anchor="end" class="muted" font-size="11">75.00</text>
<line x1="84" y1="224.07" x2="720" y2="224.07" class="grid"/>
<text x="74" y="228.07" text-anchor="end" class="muted" font-size="11">100.0</text>
<line x1="84" y1="160.31" x2="720" y2="160.31" class="grid"/>
<text x="74" y="164.31" text-anchor="end" class="muted" font-size="11">125.0</text>
<line x1="84" y1="96.55" x2="720" y2="96.55" class="grid"/>
<text x="74" y="100.55" text-anchor="end" class="muted" font-size="11">150.0</text>
<line x1="171.72" y1="82" x2="171.72" y2="482" class="grid"/>
<text x="171.72" y="506" text-anchor="middle" class="muted" font-size="11">50.00</text>
<line x1="281.38" y1="82" x2="281.38" y2="482" class="grid"/>
<text x="281.38" y="506" text-anchor="middle" class="muted" font-size="11">100.0</text>
<line x1="391.03" y1="82" x2="391.03" y2="482" class="grid"/>
<text x="391.03" y="506" text-anchor="middle" class="muted" font-size="11">150.0</text>
<line x1="500.69" y1="82" x2="500.69" y2="482" class="grid"/>
<text x="500.69" y="506" text-anchor="middle" class="muted" font-size="11">200.0</text>
<line x1="610.34" y1="82" x2="610.34" y2="482" class="grid"/>
<text x="610.34" y="506" text-anchor="middle" class="muted" font-size="11">250.0</text>
<line x1="720.00" y1="82" x2="720.00" y2="482" class="grid"/>
<text x="720.00" y="506" text-anchor="middle" class="muted" font-size="11">300.0</text>
<line x1="84" y1="482" x2="720" y2="482" class="axis"/>
<line x1="84" y1="82" x2="84" y2="482" class="axis"/>
<text x="402.0" y="540" text-anchor="middle" class="muted" font-size="13">Total payout slots</text>
<text x="22" y="282.0" text-anchor="middle" transform="rotate(-90 22 282.0)" class="muted" font-size="13">Variance reduction vs solo</text>
<polyline points="84.00,454.41 127.86,409.81 281.38,290.82 720.00,109.59" class="line" stroke="#15803d"/>
<circle cx="84.00" cy="454.41" r="4" fill="#15803d" class="dot"/>
<circle cx="127.86" cy="409.81" r="4" fill="#15803d" class="dot"/>
<circle cx="281.38" cy="290.82" r="4" fill="#15803d" class="dot"/>
<circle cx="720.00" cy="109.59" r="4" fill="#15803d" class="dot"/>
<line x1="748" y1="82" x2="766" y2="82" stroke="#15803d" stroke-width="3"/>
<text x="774" y="86" class="muted" font-size="11">variance reduction</text>
</svg>