<svg xmlns="http://www.w3.org/2000/svg" width="980" height="560" viewBox="0 0 980 560">
<style>
text{font-family:Arial,Helvetica,sans-serif;fill:#111827} .muted{fill:#4b5563} .grid{stroke:#e5e7eb;stroke-width:1} .axis{stroke:#6b7280;stroke-width:1.2} .ref{stroke:#b45309;stroke-width:1.5;stroke-dasharray:5 5} .line{fill:none;stroke-width:2.6;stroke-linejoin:round;stroke-linecap:round} .dot{stroke:#ffffff;stroke-width:1.3}
</style>
<rect width="100%" height="100%" fill="#ffffff"/>
<text x="84" y="34" font-size="22" font-weight="700">Pool Hopping Paired Delta: solo</text>
<text x="84" y="58" class="muted" font-size="13">Delta versus always-on GridPool on paired Monte Carlo seeds.</text>
<line x1="84" y1="454.41" x2="720" y2="454.41" class="grid"/>
<text x="74" y="458.41" text-anchor="end" class="muted" font-size="11">0.0e+00</text>
<line x1="84" y1="387.15" x2="720" y2="387.15" class="grid"/>
<text x="74" y="391.15" text-anchor="end" class="muted" font-size="11">0.00500</text>
<line x1="84" y1="319.89" x2="720" y2="319.89" class="grid"/>
<text x="74" y="323.89" text-anchor="end" class="muted" font-size="11">0.010</text>
<line x1="84" y1="252.63" x2="720" y2="252.63" class="grid"/>
<text x="74" y="256.63" text-anchor="end" class="muted" font-size="11">0.015</text>
<line x1="84" y1="185.36" x2="720" y2="185.36" class="grid"/>
<text x="74" y="189.36" text-anchor="end" class="muted" font-size="11">0.020</text>
<line x1="84" y1="118.10" x2="720" y2="118.10" class="grid"/>
<text x="74" y="122.10" text-anchor="end" class="muted" font-size="11">0.025</text>
<line x1="84" y1="50.84" x2="720" y2="50.84" class="grid"/>
<text x="74" y="54.84" text-anchor="end" class="muted" font-size="11">0.030</text>
<line x1="132.92" y1="82" x2="132.92" y2="482" class="grid"/>
<text x="132.92" y="506" text-anchor="middle" class="muted" font-size="11">0.200</text>
<line x1="328.62" y1="82" x2="328.62" y2="482" class="grid"/>
<text x="328.62" y="506" text-anchor="middle" class="muted" font-size="11">0.400</text>
<line x1="524.31" y1="82" x2="524.31" y2="482" class="grid"/>
<text x="524.31" y="506" text-anchor="middle" class="muted" font-size="11">0.600</text>
<line x1="720.00" y1="82" x2="720.00" y2="482" class="grid"/>
<text x="720.00" y="506" text-anchor="middle" class="muted" font-size="11">0.800</text>
<line x1="84" y1="482" x2="720" y2="482" class="axis"/>
<line x1="84" y1="82" x2="84" y2="482" class="axis"/>
<line x1="84" y1="454.41" x2="720" y2="454.41" class="ref"/>
<text x="728" y="458.41" fill="#b45309" font-size="11">ref 0.0e+00</text>
<text x="402.0" y="540" text-anchor="middle" class="muted" font-size="13">Target miner share of GridPool team</text>
<text x="22" y="282.0" text-anchor="middle" transform="rotate(-90 22 282.0)" class="muted" font-size="13">Delta EV ratio</text>
<polyline points="84.00,273.66 279.69,241.37 524.31,288.09 720.00,229.26" class="line" stroke="#15803d"/>
<circle cx="84.00" cy="273.66" r="4" fill="#15803d" class="dot"/>
<circle cx="279.69" cy="241.37" r="4" fill="#15803d" class="dot"/>
<circle cx="524.31" cy="288.09" r="4" fill="#15803d" class="dot"/>
<circle cx="720.00" cy="229.26" r="4" fill="#15803d" class="dot"/>
<line x1="748" y1="82" x2="766" y2="82" stroke="#15803d" stroke-width="3"/>
<text x="774" y="86" class="muted" font-size="11">leaves after 3 slots for 6 blocks</text>
<polyline points="84.00,252.27 279.69,129.15 524.31,291.55 720.00,221.72" class="line" stroke="#2563eb"/>
<circle cx="84.00" cy="252.27" r="4" fill="#2563eb" class="dot"/>
<circle cx="279.69" cy="129.15" r="4" fill="#2563eb" class="dot"/>
<circle cx="524.31" cy="291.55" r="4" fill="#2563eb" class="dot"/>
<circle cx="720.00" cy="221.72" r="4" fill="#2563eb" class="dot"/>
<line x1="748" y1="106" x2="766" y2="106" stroke="#2563eb" stroke-width="3"/>
<text x="774" y="110" class="muted" font-size="11">leaves while any reserve proof</text>
<polyline points="84.00,142.83 279.69,109.59 524.31,273.36 720.00,236.13" class="line" stroke="#ca8a04"/>
<circle cx="84.00" cy="142.83" r="4" fill="#ca8a04" class="dot"/>
<circle cx="279.69" cy="109.59" r="4" fill="#ca8a04" class="dot"/>
<circle cx="524.31" cy="273.36" r="4" fill="#ca8a04" class="dot"/>
<circle cx="720.00" cy="236.13" r="4" fill="#ca8a04" class="dot"/>
<line x1="748" y1="130" x2="766" y2="130" stroke="#ca8a04" stroke-width="3"/>
<text x="774" y="134" class="muted" font-size="11">leaves while in snapshot</text>
</svg>