<svg xmlns="http://www.w3.org/2000/svg" width="980" height="560" viewBox="0 0 980 560">
<style>
text{font-family:Arial,Helvetica,sans-serif;fill:#111827} .muted{fill:#4b5563} .grid{stroke:#e5e7eb;stroke-width:1} .axis{stroke:#6b7280;stroke-width:1.2} .ref{stroke:#b45309;stroke-width:1.5;stroke-dasharray:5 5} .line{fill:none;stroke-width:2.6;stroke-linejoin:round;stroke-linecap:round} .dot{stroke:#ffffff;stroke-width:1.3}
</style>
<rect width="100%" height="100%" fill="#ffffff"/>
<text x="84" y="34" font-size="22" font-weight="700">Pool Hopping Paired Delta: deterministic_fpps</text>
<text x="84" y="58" class="muted" font-size="13">Delta versus always-on GridPool on paired Monte Carlo seeds.</text>
<line x1="84" y1="424.09" x2="720" y2="424.09" class="grid"/>
<text x="74" y="428.09" text-anchor="end" class="muted" font-size="11">-0.00500</text>
<line x1="84" y1="340.36" x2="720" y2="340.36" class="grid"/>
<text x="74" y="344.36" text-anchor="end" class="muted" font-size="11">0.0e+00</text>
<line x1="84" y1="256.63" x2="720" y2="256.63" class="grid"/>
<text x="74" y="260.63" text-anchor="end" class="muted" font-size="11">0.00500</text>
<line x1="84" y1="172.91" x2="720" y2="172.91" class="grid"/>
<text x="74" y="176.91" text-anchor="end" class="muted" font-size="11">0.010</text>
<line x1="84" y1="89.18" x2="720" y2="89.18" class="grid"/>
<text x="74" y="93.18" text-anchor="end" class="muted" font-size="11">0.015</text>
<line x1="84.00" y1="82" x2="84.00" y2="482" class="grid"/>
<text x="84.00" y="506" text-anchor="middle" class="muted" font-size="11">0.0e+00</text>
<line x1="243.00" y1="82" x2="243.00" y2="482" class="grid"/>
<text x="243.00" y="506" text-anchor="middle" class="muted" font-size="11">0.00500</text>
<line x1="402.00" y1="82" x2="402.00" y2="482" class="grid"/>
<text x="402.00" y="506" text-anchor="middle" class="muted" font-size="11">0.010</text>
<line x1="561.00" y1="82" x2="561.00" y2="482" class="grid"/>
<text x="561.00" y="506" text-anchor="middle" class="muted" font-size="11">0.015</text>
<line x1="720.00" y1="82" x2="720.00" y2="482" class="grid"/>
<text x="720.00" y="506" text-anchor="middle" class="muted" font-size="11">0.020</text>
<line x1="84" y1="482" x2="720" y2="482" class="axis"/>
<line x1="84" y1="82" x2="84" y2="482" class="axis"/>
<line x1="84" y1="340.36" x2="720" y2="340.36" class="ref"/>
<text x="728" y="344.36" fill="#b45309" font-size="11">ref 0.0e+00</text>
<text x="402.0" y="540" text-anchor="middle" class="muted" font-size="13">External fee rate</text>
<text x="22" y="282.0" text-anchor="middle" transform="rotate(-90 22 282.0)" class="muted" font-size="13">Delta EV ratio</text>
<polyline points="84.00,132.89 243.00,211.44 720.00,447.08" class="line" stroke="#15803d"/>
<circle cx="84.00" cy="132.89" r="4" fill="#15803d" class="dot"/>
<circle cx="243.00" cy="211.44" r="4" fill="#15803d" class="dot"/>
<circle cx="720.00" cy="447.08" r="4" fill="#15803d" class="dot"/>
<line x1="748" y1="82" x2="766" y2="82" stroke="#15803d" stroke-width="3"/>
<text x="774" y="86" class="muted" font-size="11">leaves after 3 slots for 6 blocks</text>
<polyline points="84.00,123.12 243.00,205.94 720.00,454.41" class="line" stroke="#2563eb"/>
<circle cx="84.00" cy="123.12" r="4" fill="#2563eb" class="dot"/>
<circle cx="243.00" cy="205.94" r="4" fill="#2563eb" class="dot"/>
<circle cx="720.00" cy="454.41" r="4" fill="#2563eb" class="dot"/>
<line x1="748" y1="106" x2="766" y2="106" stroke="#2563eb" stroke-width="3"/>
<text x="774" y="110" class="muted" font-size="11">leaves while any reserve proof</text>
<polyline points="84.00,109.59 243.00,190.87 720.00,434.72" class="line" stroke="#ca8a04"/>
<circle cx="84.00" cy="109.59" r="4" fill="#ca8a04" class="dot"/>
<circle cx="243.00" cy="190.87" r="4" fill="#ca8a04" class="dot"/>
<circle cx="720.00" cy="434.72" r="4" fill="#ca8a04" class="dot"/>
<line x1="748" y1="130" x2="766" y2="130" stroke="#ca8a04" stroke-width="3"/>
<text x="774" y="134" class="muted" font-size="11">leaves while in snapshot</text>
</svg>